<svg width="205" height="177" viewBox="0 0 205 177" fill="none" xmlns="http://www.w3.org/2000/svg">
<path d="M39.6463 80.4731C42.2116 62.2824 49.208 54.12 66.2326 51.0882C77.4269 49.2225 86.289 44.7914 92.3525 34.9965C94.2182 31.7315 96.7836 30.5654 100.282 32.6643C101.215 33.364 102.381 34.0636 103.547 33.1307C108.211 29.8658 111.243 32.4311 113.575 36.3957C119.172 45.4911 127.801 49.4557 138.062 51.0882C151.822 52.9539 161.15 60.6499 164.182 74.6427C164.415 76.042 164.649 77.4413 164.882 80.0067C157.652 73.4767 150.889 68.8124 142.027 67.1799C129.9 65.081 120.571 72.3106 120.805 84.6709C121.038 91.6673 120.105 98.1973 116.607 104.494C113.808 109.858 113.342 116.155 117.306 121.519C118.239 122.918 118.706 124.084 118.006 125.716C116.14 129.681 106.345 136.678 102.381 136.678C97.9497 136.678 88.1547 129.681 86.289 125.25C85.5893 124.084 86.0558 123.384 86.7554 122.452C92.1193 115.688 90.4868 108.925 86.9886 102.395C84.6565 97.4977 83.4904 93.0666 83.9568 87.4695C85.3561 71.611 73.6955 63.4485 57.6037 68.5792C50.8405 70.6781 45.4766 74.876 39.6463 80.4731ZM102.147 78.3742C107.278 68.1128 105.879 57.6182 102.381 47.3568C98.6493 57.8514 97.7164 68.1128 102.147 78.3742ZM0 12.1415C20.2896 -3.95019 47.1091 -3.71697 67.6319 11.9083C75.3279 17.7387 82.0911 24.7351 90.9532 29.3993C92.3525 30.099 92.819 30.7986 91.8861 32.1979C86.5222 39.1943 81.6247 46.1907 71.8297 47.1236C69.7308 47.3568 68.3315 47.8232 67.6319 45.0246C59.2362 16.8058 34.7488 3.97907 4.19784 11.2087C2.79856 11.6751 1.63249 11.6751 0 12.1415ZM204.062 11.4419C197.532 10.9755 191.701 9.34298 185.871 9.34298C162.083 9.10977 145.059 20.7704 137.596 43.6254C136.43 47.1236 135.031 47.59 131.766 47.1236C122.437 45.7243 118.006 38.4947 112.875 32.1979C111.942 31.265 112.176 30.3322 113.575 29.6325C124.07 24.0354 132.232 15.1733 141.794 8.41013C159.518 -3.48376 181.44 -3.01733 204.062 11.4419ZM92.3525 163.963C88.6211 159.299 88.1547 154.635 88.8543 149.971C89.0875 147.405 90.4868 146.706 92.5857 148.105C99.1157 153.002 105.179 153.236 111.709 148.338C114.508 146.239 115.907 148.105 116.14 150.904C116.374 154.868 116.14 158.6 113.109 162.797C112.409 159.766 112.642 156.267 108.911 156.967C105.179 157.667 104.946 161.165 104.946 164.197C105.179 168.161 107.045 171.66 108.211 175.624C104.713 175.391 104.48 170.493 101.914 171.193C99.8154 171.66 99.1157 175.391 96.0839 176.79C97.4832 171.66 100.049 167.228 99.3489 162.098C98.8825 159.066 98.1829 156.267 94.2182 157.2C90.9532 157.9 92.5857 160.699 92.3525 163.963ZM119.172 130.148C118.006 141.109 109.377 150.67 101.681 149.971C93.7518 149.271 85.5893 139.476 86.0558 131.08C88.6211 131.547 91.1865 133.179 92.1193 134.812C94.9179 140.642 100.049 139.943 104.946 139.943C107.511 140.176 109.377 139.476 110.543 137.144C112.642 133.879 115.907 132.48 119.172 130.148ZM117.54 116.388C117.073 108.459 120.571 102.862 122.437 97.0312C123.836 93.0666 123.836 88.6355 129.667 88.6355C131.299 88.6355 132.465 86.7698 132.932 85.1373C133.398 83.7381 133.631 82.3388 132.465 81.4059C131.066 80.2399 130.133 81.6391 128.967 82.3388C128.034 83.2716 127.568 85.3706 125.702 84.4377C125.002 83.9713 124.536 82.8052 124.536 82.1056C124.303 79.7734 126.635 80.2399 127.801 79.7734C131.299 78.1409 132.932 74.6427 135.264 71.1445C139.228 78.1409 137.363 84.4377 134.098 90.268C129.2 98.6637 123.603 107.059 117.54 116.388ZM69.2644 71.8442C71.8297 75.3424 73.9287 79.0738 78.5929 80.2399C80.9251 80.9395 80.4586 82.572 79.5258 83.7381C78.5929 85.3706 77.6601 84.9041 76.494 83.5049C75.3279 82.1056 73.9287 79.307 72.063 81.8724C69.964 84.4377 72.063 87.2363 74.3951 88.1691C86.7554 93.533 83.024 105.893 86.9886 114.989C79.9922 100.996 63.4341 90.7345 69.2644 71.8442Z" fill="#5D3F83"/>
</svg>
